<svg width="58" height="58" viewBox="-3 -3 64 64" fill="none" xmlns="http://www.w3.org/2000/svg">
<path d="M29 58C45.0163 58 58 45.0163 58 29C58 12.9837 45.0163 0 29 0C12.9837 0 0 12.9837 0 29C0 45.0163 12.9837 58 29 58Z" fill="#5F67FA"/>
<path fill-rule="evenodd" clip-rule="evenodd" d="M30.6631 40.9983V35.1675H35.3513C34.356 38.2284 32.6182 40.4865 30.6631 40.9983ZM29.0088 23.8239H24.2371C25.1883 20.671 26.9249 18.4496 29.0088 17.9833V23.8239ZM29.0088 40.9983C27.0525 40.4865 25.3159 38.2284 24.3194 35.1675H29.0088V40.9983ZM19.1096 35.1675H22.5558C23.1952 37.4061 24.2101 39.2887 25.462 40.6326C22.7742 39.6545 20.5075 37.735 19.1096 35.1675ZM18.3696 25.4782H22.1348C21.9066 26.73 21.7875 28.0837 21.7875 29.4914C21.7875 30.8893 21.925 32.2331 22.1631 33.5046H18.3696C17.4282 30.8991 17.4282 28.0837 18.3696 25.4782ZM23.8162 25.4782H28.999V33.5046H23.8616C23.5978 32.2417 23.4419 30.8893 23.4419 29.4914C23.4419 28.0751 23.5793 26.7215 23.8162 25.4782ZM24.9784 18.5589C25.0692 18.5233 25.1699 18.4865 25.2607 18.4496C24.0641 19.7653 23.113 21.6209 22.5091 23.8337H19.1096C20.3982 21.4565 22.4453 19.6008 24.9784 18.5589ZM30.6631 17.9833C32.7471 18.4496 34.4836 20.671 35.4336 23.8337H30.6631V17.9833ZM40.2778 35.6476C40.1036 35.6476 40.1549 35.6476 39.645 35.6476C38.4815 37.6015 36.775 39.1451 34.5929 40.1846C35.6631 38.8874 37.1063 35.6476 37.1063 35.6476C37.1063 35.6476 34.519 33.8794 34.2226 33.5046H30.6631V25.4782H34.2226C34.5141 25.1087 37.1063 23.3685 37.1063 23.3685C37.1063 23.3685 35.8091 20.1666 34.7941 18.8964C36.7651 19.8794 38.4232 21.4356 39.5977 23.3685C39.7844 23.3685 40.081 23.3685 40.1549 23.3685H41.5306C39.2307 18.8927 34.5978 16 29.4923 16C27.7201 16 25.9836 16.3473 24.3378 17.0334C21.0106 18.4128 18.415 21.0085 17.0355 24.3356C15.6548 27.6628 15.6548 31.3372 17.0355 34.6644C19.128 39.7281 24.0273 43 29.5107 43C31.2841 43 33.0207 42.6539 34.6665 41.9679C37.7654 40.6854 40.1242 38.4299 41.5306 35.6476H40.2778Z" fill="white"/>
<path fill-rule="evenodd" clip-rule="evenodd" d="M43.7703 29.4964L38.045 25.8181V28.2656H35.1814V30.7519H38.045V33.1747L43.7703 29.4964Z" fill="white"/>
</svg>
